STARTFONT 2.1
FONT -thai-dbthaitext-bold-i-normal--33-240-100-100-p-101-tis620-0
SIZE 24 100 100
FONTBOUNDINGBOX 45 39 -11 -14
STARTPROPERTIES 25
FOUNDRY "thai"
FAMILY_NAME "dbthaitext"
WEIGHT_NAME "bold"
SLANT "i"
SETWIDTH_NAME "normal"
ADD_STYLE_NAME ""
PIXEL_SIZE 33
POINT_SIZE 240
RESOLUTION_X 100
RESOLUTION_Y 100
SPACING "p"
AVERAGE_WIDTH 101
CHARSET_REGISTRY "tis620"
CHARSET_ENCODING "0"
FONT "-thai-dbthaitext-bold-i-normal--33-240-100-100-p-101-tis620-0"
COPYRIGHT "Typeface (c) The Monotype Corporation plc. Data (c) The Monotype Corporation plc/Type Solutions Inc. 1990-1992. All Rights Reserved"
RAW_PIXELSIZE 1000
RAW_POINTSIZE 723
RAW_ASCENT 738
RAW_DESCENT 408
RAW_AVERAGE_WIDTH 3023
FACE_NAME "DBThaiTextBoldItalic"
DEFAULT_CHAR 0
FONT_ASCENT 25
FONT_DESCENT 14
ENDPROPERTIES
CHARS 190
STARTCHAR space
ENCODING 32
SWIDTH 240 0
DWIDTH 8 0
BBX 0 0 0 0
BITMAP
ENDCHAR
STARTCHAR exclam
ENCODING 33
SWIDTH 180 0
DWIDTH 6 0
BBX 7 14 0 0
BITMAP
08
0e
0c
1c
1c
18
18
10
30
30
00
60
e0
e0
ENDCHAR
STARTCHAR quotedbl
ENCODING 34
SWIDTH 270 0
DWIDTH 9 0
BBX 8 5 1 9
BITMAP
44
e7
e6
ce
8c
ENDCHAR
STARTCHAR numbersign
ENCODING 35
SWIDTH 330 0
DWIDTH 11 0
BBX 13 13 -1 0
BITMAP
0198
0330
0330
0660
1ff0
3ff0
0cc0
1980
7fc0
ffc0
6600
ee00
4400
ENDCHAR
STARTCHAR dollar
ENCODING 36
SWIDTH 330 0
DWIDTH 11 0
BBX 12 16 -1 -2
BITMAP
0080
07e0
0ff0
1d70
3970
3f00
1f00
1fc0
07c0
05c0
edc0
e980
ff80
7e00
1800
1000
ENDCHAR
STARTCHAR percent
ENCODING 37
SWIDTH 510 0
DWIDTH 17 0
BBX 14 13 1 0
BITMAP
3e18
7e30
4660
c6c0
ed80
fb80
2710
0e7c
0ccc
198c
3188
61f8
40e0
ENDCHAR
STARTCHAR ampersand
ENCODING 38
SWIDTH 420 0
DWIDTH 14 0
BBX 12 14 0 0
BITMAP
03c0
07e0
0ee0
0c40
0cc0
0f80
0e00
1f30
7720
63e0
c3c0
e3c0
ffc0
7cc0
ENDCHAR
STARTCHAR apostrophe
ENCODING 39
SWIDTH 150 0
DWIDTH 5 0
BBX 3 5 1 9
BITMAP
40
e0
c0
c0
80
ENDCHAR
STARTCHAR parenleft
ENCODING 40
SWIDTH 180 0
DWIDTH 6 0
BBX 8 18 0 -4
BITMAP
02
07
0e
08
18
30
30
60
60
c0
c0
c0
c0
c0
c0
c0
c0
60
ENDCHAR
STARTCHAR parenright
ENCODING 41
SWIDTH 180 0
DWIDTH 6 0
BBX 9 18 -3 -4
BITMAP
0300
0300
0380
0380
0380
0380
0380
0380
0300
0700
0700
0e00
0e00
1c00
1800
3000
6000
c000
ENDCHAR
STARTCHAR asterisk
ENCODING 42
SWIDTH 210 0
DWIDTH 7 0
BBX 7 7 0 7
BITMAP
08
18
7e
7c
78
d8
48
ENDCHAR
STARTCHAR plus
ENCODING 43
SWIDTH 330 0
DWIDTH 11 0
BBX 10 9 1 0
BITMAP
0700
0600
0600
0e00
7fc0
ff80
1c00
3800
0800
ENDCHAR
STARTCHAR comma
ENCODING 44
SWIDTH 180 0
DWIDTH 6 0
BBX 4 5 1 -2
BITMAP
70
70
60
60
80
ENDCHAR
STARTCHAR minus
ENCODING 45
SWIDTH 180 0
DWIDTH 6 0
BBX 6 3 0 4
BITMAP
7c
fc
f8
ENDCHAR
STARTCHAR period
ENCODING 46
SWIDTH 150 0
DWIDTH 5 0
BBX 3 3 1 0
BITMAP
60
e0
c0
ENDCHAR
STARTCHAR slash
ENCODING 47
SWIDTH 150 0
DWIDTH 5 0
BBX 10 14 -2 0
BITMAP
0040
0080
0180
0100
0200
0600
0c00
0800
1800
3000
2000
6000
c000
4000
ENDCHAR
STARTCHAR 0
ENCODING 48
SWIDTH 330 0
DWIDTH 11 0
BBX 11 14 0 0
BITMAP
0380
0fe0
1fe0
18e0
38e0
30e0
70c0
71c0
e1c0
e180
e380
e700
fe00
7c00
ENDCHAR
STARTCHAR 1
ENCODING 49
SWIDTH 330 0
DWIDTH 11 0
BBX 7 13 2 0
BITMAP
06
1c
fc
fc
18
18
38
38
70
70
70
e0
20
ENDCHAR
STARTCHAR 2
ENCODING 50
SWIDTH 330 0
DWIDTH 11 0
BBX 12 14 -1 0
BITMAP
01c0
07f0
0ff0
0c30
1c30
0060
00e0
01c0
0700
0e00
3800
7800
7f80
ff80
ENDCHAR
STARTCHAR 3
ENCODING 51
SWIDTH 330 0
DWIDTH 11 0
BBX 11 14 0 0
BITMAP
0380
0fe0
1de0
1860
38e0
00c0
0780
0780
0380
0180
c180
c300
fe00
7c00
ENDCHAR
STARTCHAR 4
ENCODING 52
SWIDTH 330 0
DWIDTH 11 0
BBX 11 13 -1 0
BITMAP
01e0
03c0
07c0
0dc0
0d80
1980
3380
6300
7f80
ff80
0600
0e00
0200
ENDCHAR
STARTCHAR 5
ENCODING 53
SWIDTH 330 0
DWIDTH 11 0
BBX 12 13 -1 0
BITMAP
07f0
0fe0
0c00
1800
1f80
3fc0
31c0
01c0
01c0
0180
e380
ff00
7c00
ENDCHAR
STARTCHAR 6
ENCODING 54
SWIDTH 330 0
DWIDTH 11 0
BBX 11 14 0 0
BITMAP
03c0
0fe0
1ce0
1860
3000
3700
7f80
7380
6180
e180
c380
c300
fe00
7c00
ENDCHAR
STARTCHAR 7
ENCODING 55
SWIDTH 330 0
DWIDTH 11 0
BBX 12 13 0 0
BITMAP
3ff0
3fe0
00c0
0180
0300
0600
0e00
1c00
3800
3800
7000
e000
2000
ENDCHAR
STARTCHAR 8
ENCODING 56
SWIDTH 330 0
DWIDTH 11 0
BBX 12 14 -1 0
BITMAP
03e0
0ff0
1e70
1c70
1870
1ce0
1fc0
3fc0
71c0
71c0
e1c0
e380
ff00
3c00
ENDCHAR
STARTCHAR 9
ENCODING 57
SWIDTH 330 0
DWIDTH 11 0
BBX 11 14 -1 0
BITMAP
03c0
0fe0
1fe0
1860
3060
30e0
31e0
3fc0
3fc0
1980
e380
ff00
fe00
7800
ENDCHAR
STARTCHAR colon
ENCODING 58
SWIDTH 180 0
DWIDTH 6 0
BBX 5 11 1 0
BITMAP
08
18
10
00
00
00
00
00
40
c0
c0
ENDCHAR
STARTCHAR semicolon
ENCODING 59
SWIDTH 180 0
DWIDTH 6 0
BBX 6 12 0 -2
BITMAP
0c
1c
18
00
00
00
00
70
70
60
40
80
ENDCHAR
STARTCHAR less
ENCODING 60
SWIDTH 330 0
DWIDTH 11 0
BBX 11 9 0 0
BITMAP
0020
01e0
0fc0
7e00
f000
fc00
3f00
0f80
0100
ENDCHAR
STARTCHAR equal
ENCODING 61
SWIDTH 330 0
DWIDTH 11 0
BBX 11 7 0 1
BITMAP
3fe0
3fc0
0000
0000
0000
7f80
ff80
ENDCHAR
STARTCHAR greater
ENCODING 62
SWIDTH 330 0
DWIDTH 11 0
BBX 11 8 -1 1
BITMAP
1000
3c00
3f80
07e0
01e0
07c0
7c00
8000
ENDCHAR
STARTCHAR question
ENCODING 63
SWIDTH 360 0
DWIDTH 12 0
BBX 10 14 2 0
BITMAP
1f80
3fc0
7bc0
71c0
e1c0
0380
0700
1e00
1800
3000
0000
7000
7000
e000
ENDCHAR
STARTCHAR at
ENCODING 64
SWIDTH 540 0
DWIDTH 18 0
BBX 19 17 0 -3
BITMAP
007f00
01ff80
0701c0
0e00e0
1c3260
38fe60
318c60
630cc0
6618c0
c63180
ce7380
cfff00
e7bc00
e00000
782000
3fe000
1fc000
ENDCHAR
STARTCHAR A
ENCODING 65
SWIDTH 420 0
DWIDTH 14 0
BBX 13 14 -2 0
BITMAP
0078
00f8
00f8
01f8
03b8
07b8
0738
0f38
1e38
3ff8
3ff8
7838
f038
2038
ENDCHAR
STARTCHAR B
ENCODING 66
SWIDTH 420 0
DWIDTH 14 0
BBX 14 14 -1 0
BITMAP
0ff8
0ffc
0c1c
1c1c
1c18
1c38
3ff0
3ff0
3830
7030
7070
70e0
ffc0
ff80
ENDCHAR
STARTCHAR C
ENCODING 67
SWIDTH 420 0
DWIDTH 14 0
BBX 14 14 0 0
BITMAP
01f0
07f8
1f7c
3c3c
381c
7000
7000
f000
e000
e070
e070
f1e0
7fc0
7f00
ENDCHAR
STARTCHAR D
ENCODING 68
SWIDTH 420 0
DWIDTH 14 0
BBX 14 14 -1 0
BITMAP
0ff0
0ff8
0c3c
1c1c
1c1c
1c1c
381c
3818
3838
7030
7070
70e0
ffc0
ff00
ENDCHAR
STARTCHAR E
ENCODING 69
SWIDTH 390 0
DWIDTH 13 0
BBX 14 14 0 0
BITMAP
0ffc
0ff8
0c00
1c00
1c00
1c00
3fe0
3fe0
3000
3000
7000
7000
7fc0
ffc0
ENDCHAR
STARTCHAR F
ENCODING 70
SWIDTH 360 0
DWIDTH 12 0
BBX 14 14 -1 0
BITMAP
0ffc
0ff8
0c00
1c00
1c00
1c00
3fe0
3fe0
7000
7000
7000
f000
e000
2000
ENDCHAR
STARTCHAR G
ENCODING 71
SWIDTH 450 0
DWIDTH 15 0
BBX 14 14 0 0
BITMAP
03f0
07f8
1e3c
1c1c
381c
7000
6000
60f8
e1f8
e030
e070
f0f0
7fe0
3f20
ENDCHAR
STARTCHAR H
ENCODING 72
SWIDTH 420 0
DWIDTH 14 0
BBX 16 14 -1 0
BITMAP
0c04
0f07
0e0f
1e0e
1c0e
1c1e
3ffc
3ffc
3838
7838
7078
7070
e0f0
e030
ENDCHAR
STARTCHAR I
ENCODING 73
SWIDTH 150 0
DWIDTH 5 0
BBX 7 14 -1 0
BITMAP
0e
0e
1c
1c
1c
38
38
38
70
70
70
f0
e0
20
ENDCHAR
STARTCHAR J
ENCODING 74
SWIDTH 330 0
DWIDTH 11 0
BBX 12 14 -1 0
BITMAP
0040
0070
00f0
00e0
00e0
00c0
01c0
01c0
0180
6380
e380
e700
fe00
7c00
ENDCHAR
STARTCHAR K
ENCODING 75
SWIDTH 420 0
DWIDTH 14 0
BBX 16 14 -1 0
BITMAP
0c0c
0e1f
0e3c
1c78
1de0
1fc0
3f80
3f80
3fc0
71c0
71e0
70e0
e0e0
e070
ENDCHAR
STARTCHAR L
ENCODING 76
SWIDTH 360 0
DWIDTH 12 0
BBX 10 14 -1 0
BITMAP
0800
0e00
0e00
1c00
1c00
1c00
3800
3800
3800
3000
7000
7000
7fc0
ff80
ENDCHAR
STARTCHAR M
ENCODING 77
SWIDTH 480 0
DWIDTH 16 0
BBX 18 14 -1 0
BITMAP
0c0200
0f87c0
0f8fc0
1f0f80
1f1b80
1f1f80
3b3700
3b3700
7b6e00
736e00
73de00
f7dc00
e79c00
210c00
ENDCHAR
STARTCHAR N
ENCODING 78
SWIDTH 420 0
DWIDTH 14 0
BBX 16 14 -1 0
BITMAP
0f04
0f07
0f0f
1f0e
1f8e
1d9e
399c
399c
79b8
71f8
70f8
f0f0
e0f0
20f0
ENDCHAR
STARTCHAR O
ENCODING 79
SWIDTH 450 0
DWIDTH 15 0
BBX 14 14 0 0
BITMAP
03f0
07f8
1e3c
181c
301c
701c
601c
e018
e038
e030
e070
f1e0
7f80
3f00
ENDCHAR
STARTCHAR P
ENCODING 80
SWIDTH 390 0
DWIDTH 13 0
BBX 14 14 -1 0
BITMAP
0ff8
0ffc
0c1c
1c1c
1c1c
1c38
3878
3ff0
3fc0
7000
7000
7000
e000
e000
ENDCHAR
STARTCHAR Q
ENCODING 81
SWIDTH 450 0
DWIDTH 15 0
BBX 14 15 1 -1
BITMAP
03f0
07f8
1e3c
181c
301c
701c
601c
e018
e038
e1b0
e3f0
f1e0
7fe0
3e60
0040
ENDCHAR
STARTCHAR R
ENCODING 82
SWIDTH 420 0
DWIDTH 14 0
BBX 16 14 -1 0
BITMAP
0ffe
0fff
0c0f
1c0f
1c1f
1c1e
3ffc
3ff8
3c7c
787c
7878
7078
f0f8
e0f8
ENDCHAR
STARTCHAR S
ENCODING 83
SWIDTH 390 0
DWIDTH 13 0
BBX 13 14 0 0
BITMAP
03e0
0ff8
1c78
1838
3800
3c00
3fc0
1fe0
01f0
0060
e060
e0e0
ffc0
3e00
ENDCHAR
STARTCHAR T
ENCODING 84
SWIDTH 360 0
DWIDTH 12 0
BBX 12 14 2 0
BITMAP
7ff0
ffe0
0e00
0e00
1c00
1c00
1c00
3800
3800
3800
7000
7000
7000
2000
ENDCHAR
STARTCHAR U
ENCODING 85
SWIDTH 420 0
DWIDTH 14 0
BBX 14 14 1 0
BITMAP
1010
1c1c
183c
3838
3838
3030
7070
7070
6060
e0e0
e0e0
e1c0
ff80
3e00
ENDCHAR
STARTCHAR V
ENCODING 86
SWIDTH 390 0
DWIDTH 13 0
BBX 12 14 3 0
BITMAP
8040
e0f0
e0e0
e1c0
e3c0
e380
e700
ee00
ee00
fc00
d800
f000
f000
e000
ENDCHAR
STARTCHAR W
ENCODING 87
SWIDTH 540 0
DWIDTH 18 0
BBX 18 14 2 0
BITMAP
408100
71e3c0
71e380
e3e780
e3c700
e6ce00
e6ce00
ecdc00
fcd800
f8f800
f1b000
f1e000
e1e000
204000
ENDCHAR
STARTCHAR X
ENCODING 88
SWIDTH 390 0
DWIDTH 13 0
BBX 16 14 -2 0
BITMAP
070c
071f
071e
03bc
03f0
03e0
03c0
03c0
07c0
0fc0
1ce0
78e0
f8e0
30e0
ENDCHAR
STARTCHAR Y
ENCODING 89
SWIDTH 390 0
DWIDTH 13 0
BBX 12 14 3 0
BITMAP
e0c0
f0f0
f1e0
73c0
7780
7700
7e00
7c00
3800
7800
7000
7000
e000
2000
ENDCHAR
STARTCHAR Z
ENCODING 90
SWIDTH 360 0
DWIDTH 12 0
BBX 16 14 -2 0
BITMAP
0fff
0ffe
00fe
003c
0070
00e0
01c0
0380
0f00
1e00
3c00
7800
7ff0
fff0
ENDCHAR
STARTCHAR bracketleft
ENCODING 91
SWIDTH 180 0
DWIDTH 6 0
BBX 10 18 -1 -4
BITMAP
07c0
07c0
0600
0e00
0e00
0c00
1c00
1c00
1800
1800
3800
3000
3000
7000
7000
6000
f800
f800
ENDCHAR
STARTCHAR backslash
ENCODING 92
SWIDTH 150 0
DWIDTH 5 0
BBX 2 13 2 0
BITMAP
c0
c0
c0
c0
c0
c0
c0
c0
c0
c0
c0
c0
40
ENDCHAR
STARTCHAR bracketright
ENCODING 93
SWIDTH 180 0
DWIDTH 6 0
BBX 10 18 -2 -4
BITMAP
07c0
07c0
0180
0380
0380
0300
0300
0700
0600
0600
0e00
0e00
0c00
1c00
1c00
1800
f800
f800
ENDCHAR
STARTCHAR asciicircum
ENCODING 94
SWIDTH 330 0
DWIDTH 11 0
BBX 9 8 0 5
BITMAP
0300
0780
0d80
1d80
1980
3180
6180
e180
ENDCHAR
STARTCHAR underscore
ENCODING 95
SWIDTH 330 0
DWIDTH 11 0
BBX 12 2 -1 -4
BITMAP
fff0
1ff0
ENDCHAR
STARTCHAR grave
ENCODING 96
SWIDTH 180 0
DWIDTH 6 0
BBX 6 5 0 3
BITMAP
7c
7c
fc
f8
f0
ENDCHAR
STARTCHAR a
ENCODING 97
SWIDTH 330 0
DWIDTH 11 0
BBX 11 10 -1 0
BITMAP
0fc0
1fe0
38e0
01e0
1fc0
7dc0
71c0
e380
ff40
fa40
ENDCHAR
STARTCHAR b
ENCODING 98
SWIDTH 360 0
DWIDTH 12 0
BBX 12 14 -1 0
BITMAP
0c00
0e00
0e00
1c00
1fe0
1ff0
3c70
3870
3870
70e0
70e0
79c0
ff80
ef00
ENDCHAR
STARTCHAR c
ENCODING 99
SWIDTH 330 0
DWIDTH 11 0
BBX 10 10 0 0
BITMAP
0f80
1fc0
31c0
70c0
6000
e000
e380
e300
fe00
7c00
ENDCHAR
STARTCHAR d
ENCODING 100
SWIDTH 360 0
DWIDTH 12 0
BBX 13 14 0 0
BITMAP
0038
0038
0030
0070
0f70
3fe0
39e0
70e0
61c0
e1c0
e1c0
e380
ff80
7880
ENDCHAR
STARTCHAR e
ENCODING 101
SWIDTH 330 0
DWIDTH 11 0
BBX 10 10 0 0
BITMAP
0f80
1fc0
30c0
70c0
7fc0
ffc0
c000
e380
ff00
7800
ENDCHAR
STARTCHAR f
ENCODING 102
SWIDTH 180 0
DWIDTH 6 0
BBX 9 14 -1 0
BITMAP
0700
0f80
0e00
1c00
3f00
7e00
3c00
3800
3800
7000
7000
f000
e000
2000
ENDCHAR
STARTCHAR g
ENCODING 103
SWIDTH 360 0
DWIDTH 12 0
BBX 13 14 -1 -4
BITMAP
03b8
0ff0
1c70
1870
3060
3060
30e0
71c0
3fc0
3fc0
0180
e380
ff00
7c00
ENDCHAR
STARTCHAR h
ENCODING 104
SWIDTH 360 0
DWIDTH 12 0
BBX 12 14 -1 0
BITMAP
0e00
0e00
0c00
1c00
1ff0
1ff0
3c70
38e0
78e0
70e0
71e0
f1c0
e3c0
20c0
ENDCHAR
STARTCHAR i
ENCODING 105
SWIDTH 150 0
DWIDTH 5 0
BBX 7 14 -1 0
BITMAP
0e
0c
00
00
1c
18
38
38
30
70
70
60
e0
e0
ENDCHAR
STARTCHAR j
ENCODING 106
SWIDTH 150 0
DWIDTH 5 0
BBX 10 18 -3 -4
BITMAP
01c0
0180
0000
0000
0380
0300
0700
0700
0600
0e00
0e00
1c00
1c00
1c00
3800
3800
f800
2000
ENDCHAR
STARTCHAR k
ENCODING 107
SWIDTH 330 0
DWIDTH 11 0
BBX 12 14 -1 0
BITMAP
0800
0e00
0c00
1c00
1ce0
19c0
3b80
3e00
7e00
7f00
7700
e700
e380
2380
ENDCHAR
STARTCHAR l
ENCODING 108
SWIDTH 150 0
DWIDTH 5 0
BBX 7 14 -1 0
BITMAP
08
0e
1e
1c
1c
3c
38
38
78
70
70
f0
e0
20
ENDCHAR
STARTCHAR m
ENCODING 109
SWIDTH 510 0
DWIDTH 17 0
BBX 17 10 -1 0
BITMAP
11cf80
1fff80
38e380
38e380
30c700
71c700
71c700
e38e00
e38e00
208600
ENDCHAR
STARTCHAR n
ENCODING 110
SWIDTH 360 0
DWIDTH 12 0
BBX 12 10 -1 0
BITMAP
11e0
1ff0
1c70
3870
38e0
30e0
71e0
71c0
61c0
e0c0
ENDCHAR
STARTCHAR o
ENCODING 111
SWIDTH 360 0
DWIDTH 12 0
BBX 11 10 0 0
BITMAP
07c0
1fe0
38e0
70e0
60e0
e0c0
e1c0
e380
ff00
3c00
ENDCHAR
STARTCHAR p
ENCODING 112
SWIDTH 360 0
DWIDTH 12 0
BBX 13 14 -1 -4
BITMAP
04f0
0ff8
0e38
1c38
1c38
1830
3870
3cf0
3fe0
77c0
7000
e000
e000
2000
ENDCHAR
STARTCHAR q
ENCODING 113
SWIDTH 360 0
DWIDTH 12 0
BBX 12 14 1 -4
BITMAP
0f70
1ff0
39e0
70e0
60e0
e1c0
e1c0
e3c0
ff80
7b80
0380
0700
0700
0700
ENDCHAR
STARTCHAR r
ENCODING 114
SWIDTH 210 0
DWIDTH 7 0
BBX 9 10 0 0
BITMAP
1000
1f80
1c00
3800
3000
3000
7000
6000
6000
e000
ENDCHAR
STARTCHAR s
ENCODING 115
SWIDTH 330 0
DWIDTH 11 0
BBX 11 10 0 0
BITMAP
0fc0
1fe0
38e0
3c00
3f80
1fc0
03c0
e380
ff00
7e00
ENDCHAR
STARTCHAR t
ENCODING 116
SWIDTH 180 0
DWIDTH 6 0
BBX 7 13 0 0
BITMAP
0c
1c
1c
7e
7e
38
30
70
70
60
e0
f0
f0
ENDCHAR
STARTCHAR u
ENCODING 117
SWIDTH 360 0
DWIDTH 12 0
BBX 12 10 0 0
BITMAP
3070
3860
38e0
78e0
70c0
71c0
e1c0
e380
ff80
f880
ENDCHAR
STARTCHAR v
ENCODING 118
SWIDTH 330 0
DWIDTH 11 0
BBX 10 10 2 0
BITMAP
8100
e3c0
e380
e700
ee00
ee00
fc00
f800
f000
e000
ENDCHAR
STARTCHAR w
ENCODING 119
SWIDTH 450 0
DWIDTH 15 0
BBX 16 10 1 0
BITMAP
c304
f7cf
f7de
fe9c
efbc
fdf8
f9f0
f3f0
f3e0
20c0
ENDCHAR
STARTCHAR x
ENCODING 120
SWIDTH 330 0
DWIDTH 11 0
BBX 13 10 -1 0
BITMAP
0e60
0e78
0ee0
07c0
0780
0f00
1f80
3b80
f380
31c0
ENDCHAR
STARTCHAR y
ENCODING 121
SWIDTH 330 0
DWIDTH 11 0
BBX 13 14 -1 -4
BITMAP
1020
1c78
1c70
1ce0
1ce0
1dc0
1f80
1f00
1e00
1e00
1c00
1800
f000
6000
ENDCHAR
STARTCHAR z
ENCODING 122
SWIDTH 270 0
DWIDTH 9 0
BBX 12 10 -1 0
BITMAP
0ff0
1fe0
01e0
0380
0700
0e00
1c00
7800
7f80
ff80
ENDCHAR
STARTCHAR braceleft
ENCODING 123
SWIDTH 210 0
DWIDTH 7 0
BBX 9 18 0 -4
BITMAP
0300
0780
0e00
0c00
0c00
1c00
1800
3800
7000
f000
3000
7000
6000
6000
e000
e000
f000
6000
ENDCHAR
STARTCHAR bar
ENCODING 124
SWIDTH 150 0
DWIDTH 5 0
BBX 7 18 -1 -4
BITMAP
06
06
04
0c
0c
08
18
18
10
10
30
20
20
60
60
40
c0
c0
ENDCHAR
STARTCHAR braceright
ENCODING 125
SWIDTH 210 0
DWIDTH 7 0
BBX 9 18 -2 -4
BITMAP
0300
0780
0380
0380
0300
0300
0700
0600
0780
0700
0e00
0c00
1c00
1800
1800
3800
f000
e000
ENDCHAR
STARTCHAR asciitilde
ENCODING 126
SWIDTH 330 0
DWIDTH 11 0
BBX 9 3 1 3
BITMAP
3000
7d80
8700
ENDCHAR
STARTCHAR exclamdown
ENCODING 161
SWIDTH 360 0
DWIDTH 12 0
BBX 12 12 0 0
BITMAP
07e0
1ff0
3870
3e30
1c70
3860
3060
70e0
60c0
61c0
e1c0
4080
ENDCHAR
STARTCHAR cent
ENCODING 162
SWIDTH 360 0
DWIDTH 12 0
BBX 11 12 1 0
BITMAP
0800
7e60
7ac0
dac0
f6c0
4c80
1980
1980
3100
3300
ff00
fe00
ENDCHAR
STARTCHAR sterling
ENCODING 163
SWIDTH 390 0
DWIDTH 13 0
BBX 13 12 1 0
BITMAP
0900
3f98
65b0
fbb0
df30
de60
f660
0c60
0cc0
0cc0
3fc0
3f80
ENDCHAR
STARTCHAR currency
ENCODING 164
SWIDTH 360 0
DWIDTH 12 0
BBX 11 12 1 0
BITMAP
0fc0
1fc0
30e0
6660
7fe0
d3c0
fec0
7dc0
6180
6380
e380
4100
ENDCHAR
STARTCHAR yen
ENCODING 165
SWIDTH 360 0
DWIDTH 12 0
BBX 11 12 1 0
BITMAP
0440
1fe0
3260
6660
7fe0
d3c0
fec0
7dc0
6180
6380
e380
4100
ENDCHAR
STARTCHAR brokenbar
ENCODING 166
SWIDTH 450 0
DWIDTH 15 0
BBX 14 12 1 0
BITMAP
0900
3f0c
4588
7318
d618
9610
e410
1f30
2fa0
48e0
5860
7020
ENDCHAR
STARTCHAR section
ENCODING 167
SWIDTH 300 0
DWIDTH 10 0
BBX 9 12 1 0
BITMAP
0100
0780
0d80
0f80
4f00
e300
e300
6600
6600
7e00
7c00
3800
ENDCHAR
STARTCHAR diaeresis
ENCODING 168
SWIDTH 330 0
DWIDTH 11 0
BBX 9 12 2 0
BITMAP
1f00
3f80
6180
4180
3180
7900
9b00
fb00
5a00
1e00
1600
1c00
ENDCHAR
STARTCHAR copyright
ENCODING 169
SWIDTH 390 0
DWIDTH 13 0
BBX 12 12 0 0
BITMAP
07c0
0fe0
1c70
1070
3060
7860
d8e0
fbf0
7ef0
78f0
71a0
21e0
ENDCHAR
STARTCHAR ordfeminine
ENCODING 170
SWIDTH 360 0
DWIDTH 12 0
BBX 12 12 2 0
BITMAP
0830
3e60
7bc0
9380
f480
4980
1980
1100
3100
3300
fe00
fe00
ENDCHAR
STARTCHAR guillemotleft
ENCODING 171
SWIDTH 390 0
DWIDTH 13 0
BBX 14 12 1 0
BITMAP
090c
3f98
65f0
f9e0
db60
de60
f660
0cc0
0cc0
0cc0
3f80
3f80
ENDCHAR
STARTCHAR notsign
ENCODING 172
SWIDTH 480 0
DWIDTH 16 0
BBX 16 12 0 0
BITMAP
0380
1fc3
38e6
7ce6
1cc6
30cc
71cc
618c
7bd8
dff8
ddb8
f730
ENDCHAR
STARTCHAR hyphen
ENCODING 173
SWIDTH 480 0
DWIDTH 16 0
BBX 16 17 1 -5
BITMAP
0380
1fe3
38e6
7ce6
1cc6
30cc
71cc
618c
7998
db98
dff8
f7f0
0200
0f30
1b60
1ee0
1f80
ENDCHAR
STARTCHAR registered
ENCODING 174
SWIDTH 390 0
DWIDTH 13 0
BBX 14 17 0 -5
BITMAP
0060
03f8
061c
0f8c
070c
0e18
0c18
0c18
7c30
4830
d830
f260
0b60
7e60
cfc0
dfc0
f9c0
ENDCHAR
STARTCHAR macron
ENCODING 175
SWIDTH 390 0
DWIDTH 13 0
BBX 14 17 0 -5
BITMAP
0060
03f8
060c
0f8c
030c
0618
0c18
0c18
3c30
4830
5830
7220
0660
3460
f940
9fc0
f5c0
ENDCHAR
STARTCHAR degree
ENCODING 176
SWIDTH 300 0
DWIDTH 10 0
BBX 16 18 -3 -6
BITMAP
0030
01ff
03cf
07f8
0038
03f8
06f8
06f8
07f0
00f0
00f0
00e0
0040
0fe0
0f60
7fc0
dec0
ff80
ENDCHAR
STARTCHAR plusminus
ENCODING 177
SWIDTH 480 0
DWIDTH 16 0
BBX 16 12 0 0
BITMAP
0c80
3fdf
75ff
ffff
ffee
feee
ffde
0f9c
0f3c
1e3c
1c38
0808
ENDCHAR
STARTCHAR twosuperior
ENCODING 178
SWIDTH 480 0
DWIDTH 16 0
BBX 16 12 1 0
BITMAP
0440
1fc3
3266
6666
4f46
d2cc
decc
cc8c
dbc8
77f8
e5b8
4730
ENDCHAR
STARTCHAR threesuperior
ENCODING 179
SWIDTH 480 0
DWIDTH 16 0
BBX 16 12 0 0
BITMAP
0380
1fc3
38e6
7ce6
1cc6
30cc
71cc
61be
79fa
dbda
dbbe
f31c
ENDCHAR
STARTCHAR acute
ENCODING 180
SWIDTH 360 0
DWIDTH 12 0
BBX 11 12 1 0
BITMAP
0fc0
1fe0
38e0
6660
6f60
dbc0
dec0
cdc0
d980
7180
e380
4100
ENDCHAR
STARTCHAR mu
ENCODING 181
SWIDTH 360 0
DWIDTH 12 0
BBX 11 12 1 0
BITMAP
0240
1fc0
3260
6660
4fe0
dbc0
dec0
cdc0
d980
7180
e380
4100
ENDCHAR
STARTCHAR paragraph
ENCODING 182
SWIDTH 360 0
DWIDTH 12 0
BBX 11 12 1 0
BITMAP
07c0
1fe0
3060
7c60
1860
30c0
60c0
60c0
7980
d980
9380
e100
ENDCHAR
STARTCHAR periodcentered
ENCODING 183
SWIDTH 390 0
DWIDTH 13 0
BBX 12 12 1 0
BITMAP
1000
78f0
49b0
db70
7b60
3660
3ce0
38c0
79c0
71c0
6180
c080
ENDCHAR
STARTCHAR cedilla
ENCODING 184
SWIDTH 330 0
DWIDTH 11 0
BBX 12 12 -1 0
BITMAP
0100
0ff0
1860
3f80
01c0
18c0
1880
1980
3180
3100
ff00
fe00
ENDCHAR
STARTCHAR onesuperior
ENCODING 185
SWIDTH 390 0
DWIDTH 13 0
BBX 11 12 1 0
BITMAP
1000
7860
4840
d8c0
70c0
3080
3180
67c0
6d40
f340
e340
4380
ENDCHAR
STARTCHAR masculine
ENCODING 186
SWIDTH 390 0
DWIDTH 13 0
BBX 13 12 0 0
BITMAP
0800
1c18
2410
2c30
3c30
1820
1860
1860
3040
30c0
ffc0
ff80
ENDCHAR
STARTCHAR guillemotright
ENCODING 187
SWIDTH 390 0
DWIDTH 13 0
BBX 16 16 -2 0
BITMAP
0003
0003
0006
0006
040e
1f0c
3f1c
3e1c
3e18
0438
0c38
1870
1870
30f0
ffe0
ffc0
ENDCHAR
STARTCHAR onequarter
ENCODING 188
SWIDTH 360 0
DWIDTH 12 0
BBX 13 12 0 0
BITMAP
0200
0f18
1b30
1e30
3c30
3260
3760
6f60
79c0
f1c0
e0c0
4040
ENDCHAR
STARTCHAR onehalf
ENCODING 189
SWIDTH 360 0
DWIDTH 12 0
BBX 14 16 -1 0
BITMAP
000c
000c
0018
0018
0418
0e10
1230
1e30
3c20
3260
3660
6f40
73c0
e1c0
c080
4080
ENDCHAR
STARTCHAR threequarters
ENCODING 190
SWIDTH 420 0
DWIDTH 14 0
BBX 13 12 1 0
BITMAP
1000
7918
4910
d3b0
77b0
35a0
79a0
79e0
70c0
e0c0
c0c0
4040
ENDCHAR
STARTCHAR questiondown
ENCODING 191
SWIDTH 420 0
DWIDTH 14 0
BBX 16 16 0 0
BITMAP
0003
0003
0006
0006
100e
7c4c
6cdc
fddc
7bd8
17f8
3ef8
3cf0
78f0
78f0
f0e0
6020
ENDCHAR
STARTCHAR Agrave
ENCODING 192
SWIDTH 390 0
DWIDTH 13 0
BBX 13 12 -1 0
BITMAP
0040
03f0
0c18
0f18
0618
0c10
0830
1830
7820
9060
9060
e020
ENDCHAR
STARTCHAR Aacute
ENCODING 193
SWIDTH 390 0
DWIDTH 13 0
BBX 13 12 0 0
BITMAP
0800
1c18
2410
3430
1c30
0820
0860
3e60
5f40
91c0
f0c0
e080
ENDCHAR
STARTCHAR Acircumflex
ENCODING 194
SWIDTH 360 0
DWIDTH 12 0
BBX 12 12 0 0
BITMAP
0200
0f30
1920
1e60
3c60
3040
1cc0
30c0
6080
4080
ff80
ff00
ENDCHAR
STARTCHAR Atilde
ENCODING 195
SWIDTH 300 0
DWIDTH 10 0
BBX 10 12 1 0
BITMAP
0c00
3fc0
6080
fe00
0600
0300
0200
0600
1e00
2400
2400
3800
ENDCHAR
STARTCHAR Adiaeresis
ENCODING 196
SWIDTH 360 0
DWIDTH 12 0
BBX 11 18 1 -6
BITMAP
07c0
1fe0
3060
7c60
1860
30c0
60c0
60c0
7980
d980
9180
e100
0300
0300
0200
0600
0600
0400
ENDCHAR
STARTCHAR Aring
ENCODING 197
SWIDTH 360 0
DWIDTH 12 0
BBX 11 12 0 0
BITMAP
0fc0
1fe0
38e0
2060
1ee0
37c0
63c0
63c0
7b80
db80
db80
f100
ENDCHAR
STARTCHAR AE
ENCODING 198
SWIDTH 390 0
DWIDTH 13 0
BBX 13 18 0 -6
BITMAP
0040
03f0
0c18
0f18
0618
0c10
0810
1830
7820
9020
9060
e040
0040
00c0
0080
0080
0180
0100
ENDCHAR
STARTCHAR Ccedilla
ENCODING 199
SWIDTH 330 0
DWIDTH 11 0
BBX 9 12 1 0
BITMAP
1f00
7f80
e380
4180
0180
0300
0300
0300
1e00
1600
3600
1800
ENDCHAR
STARTCHAR Egrave
ENCODING 200
SWIDTH 360 0
DWIDTH 12 0
BBX 13 12 1 0
BITMAP
0398
1ff0
30e0
6fe0
5f60
d2c0
fec0
7dc0
6180
6380
e380
4100
ENDCHAR
STARTCHAR Eacute
ENCODING 201
SWIDTH 390 0
DWIDTH 13 0
BBX 16 12 -1 0
BITMAP
0400
1f0c
3f08
3e18
3fd3
07f6
0ffc
1bf8
1830
30f0
ffe0
ffc0
ENDCHAR
STARTCHAR Ecircumflex
ENCODING 202
SWIDTH 360 0
DWIDTH 12 0
BBX 13 13 0 0
BITMAP
0010
07f8
1ff0
38e0
20e0
1fe0
3fe0
63c0
63c0
7bc0
db80
db80
f080
ENDCHAR
STARTCHAR Ediaeresis
ENCODING 203
SWIDTH 390 0
DWIDTH 13 0
BBX 12 12 1 0
BITMAP
1020
78f0
49b0
d9a0
71c0
37e0
3ce0
78c0
70c0
61c0
e180
4080
ENDCHAR
STARTCHAR Igrave
ENCODING 204
SWIDTH 420 0
DWIDTH 14 0
BBX 16 13 1 0
BITMAP
003d
106f
786e
48b8
d998
73b0
37b0
3db0
78e0
70e0
f0e0
e0c0
4040
ENDCHAR
STARTCHAR Iacute
ENCODING 205
SWIDTH 360 0
DWIDTH 12 0
BBX 11 12 0 0
BITMAP
07c0
1fe0
30e0
1060
1c60
3cc0
6cc0
78c0
7180
c180
ff80
ff00
ENDCHAR
STARTCHAR Icircumflex
ENCODING 206
SWIDTH 360 0
DWIDTH 12 0
BBX 13 12 0 0
BITMAP
0f88
1ff8
3070
3fe0
1fc0
38c0
68c0
48c0
7180
c180
ff00
ff00
ENDCHAR
STARTCHAR Idiaeresis
ENCODING 207
SWIDTH 330 0
DWIDTH 11 0
BBX 10 11 2 1
BITMAP
1000
7cc0
6d80
fb80
f780
ff00
7b00
0300
0600
0600
1c00
ENDCHAR
STARTCHAR ETH
ENCODING 208
SWIDTH 270 0
DWIDTH 9 0
BBX 11 11 -1 0
BITMAP
0e60
1ee0
37c0
3f80
1f00
0000
7980
fb00
df00
fe00
7800
ENDCHAR
STARTCHAR Ntilde
ENCODING 209
SWIDTH 0 0
DWIDTH 0 0
BBX 10 5 -7 13
BITMAP
7080
d180
9300
fe00
3000
ENDCHAR
STARTCHAR Ograve
ENCODING 210
SWIDTH 300 0
DWIDTH 10 0
BBX 8 12 1 0
BITMAP
1e
7f
63
c3
02
06
06
06
0c
0c
1c
08
ENDCHAR
STARTCHAR Oacute
ENCODING 211
SWIDTH 300 0
DWIDTH 10 0
BBX 12 18 -4 0
BITMAP
3000
7800
d800
f000
4000
0000
03e0
07f0
0e30
0c30
0060
0060
0060
00e0
00c0
00c0
01c0
0080
ENDCHAR
STARTCHAR Ocircumflex
ENCODING 212
SWIDTH 0 0
DWIDTH 0 0
BBX 9 5 -11 13
BITMAP
0f00
3180
7d80
ff80
0080
ENDCHAR
STARTCHAR Otilde
ENCODING 213
SWIDTH 30 0
DWIDTH 1 0
BBX 10 6 -10 13
BITMAP
00c0
1f80
3380
7d80
ff80
0080
ENDCHAR
STARTCHAR Odiaeresis
ENCODING 214
SWIDTH 0 0
DWIDTH 0 0
BBX 10 7 -11 13
BITMAP
0080
01c0
1e40
3380
7d80
ff80
0080
ENDCHAR
STARTCHAR multiply
ENCODING 215
SWIDTH 30 0
DWIDTH 1 0
BBX 10 6 -10 13
BITMAP
02c0
1e80
3380
7d80
ff80
0080
ENDCHAR
STARTCHAR Ooblique
ENCODING 216
SWIDTH 0 0
DWIDTH 0 0
BBX 5 7 -6 -8
BITMAP
30
78
d8
f8
70
30
30
ENDCHAR
STARTCHAR Ugrave
ENCODING 217
SWIDTH 0 0
DWIDTH 0 0
BBX 8 8 -9 -9
BITMAP
33
7b
9a
f6
76
34
3c
10
ENDCHAR
STARTCHAR Uacute
ENCODING 218
SWIDTH 0 0
DWIDTH 0 0
BBX 2 2 -4 -4
BITMAP
c0
c0
ENDCHAR
STARTCHAR Ucircumflex
ENCODING 219
SWIDTH 0 0
DWIDTH 0 0
BBX 2 2 -4 -8
BITMAP
40
c0
ENDCHAR
STARTCHAR Udiaeresis
ENCODING 220
SWIDTH 0 0
DWIDTH 0 0
BBX 1 1 0 0
BITMAP
00
ENDCHAR
STARTCHAR Yacute
ENCODING 221
SWIDTH 0 0
DWIDTH 0 0
BBX 1 1 0 0
BITMAP
00
ENDCHAR
STARTCHAR THORN
ENCODING 222
SWIDTH 0 0
DWIDTH 0 0
BBX 1 1 0 0
BITMAP
00
ENDCHAR
STARTCHAR ssharp
ENCODING 223
SWIDTH 420 0
DWIDTH 14 0
BBX 14 16 -1 -1
BITMAP
0060
0ff8
0ffc
0cfc
1c9c
1c98
1df8
3ff0
3ff0
3bf0
7230
7270
77e0
ffc0
ff80
0c00
ENDCHAR
STARTCHAR agrave
ENCODING 224
SWIDTH 180 0
DWIDTH 6 0
BBX 5 11 0 0
BITMAP
18
30
30
30
20
60
60
78
d8
d0
e0
ENDCHAR
STARTCHAR aacute
ENCODING 225
SWIDTH 360 0
DWIDTH 12 0
BBX 10 11 1 0
BITMAP
10c0
1080
3180
3180
2100
6300
6300
7380
9240
9680
e300
ENDCHAR
STARTCHAR acircumflex
ENCODING 226
SWIDTH 240 0
DWIDTH 8 0
BBX 10 21 0 0
BITMAP
0200
1fc0
39c0
0c00
0400
0c00
0c00
0800
1800
1800
1800
1000
3000
3000
2000
6000
6000
7000
9000
9000
e000
ENDCHAR
STARTCHAR atilde
ENCODING 227
SWIDTH 240 0
DWIDTH 8 0
BBX 7 21 0 0
BITMAP
0c
1e
36
76
74
7c
0c
0c
18
18
18
10
30
30
20
60
60
70
d0
90
e0
ENDCHAR
STARTCHAR adiaeresis
ENCODING 228
SWIDTH 270 0
DWIDTH 9 0
BBX 8 21 1 0
BITMAP
22
67
6f
6e
7e
76
7c
0c
0c
18
18
18
30
30
30
60
60
78
d8
d8
e0
ENDCHAR
STARTCHAR aring
ENCODING 229
SWIDTH 300 0
DWIDTH 10 0
BBX 8 18 2 -6
BITMAP
1e
7f
63
c3
03
06
06
06
0c
0c
0c
18
18
18
10
30
30
20
ENDCHAR
STARTCHAR ae
ENCODING 230
SWIDTH 390 0
DWIDTH 13 0
BBX 9 16 4 -4
BITMAP
0900
3f80
6d80
7180
fb80
db00
f300
0700
0600
0600
0600
0c00
0c00
1c00
7800
6000
ENDCHAR
STARTCHAR ccedilla
ENCODING 231
SWIDTH 0 0
DWIDTH 0 0
BBX 10 7 -10 13
BITMAP
00c0
3f80
7f00
d700
fd00
cf00
4600
ENDCHAR
STARTCHAR egrave
ENCODING 232
SWIDTH 0 0
DWIDTH 0 0
BBX 3 4 -4 21
BITMAP
60
60
c0
c0
ENDCHAR
STARTCHAR eacute
ENCODING 233
SWIDTH 0 0
DWIDTH 0 0
BBX 8 5 -6 20
BITMAP
20
73
f6
ec
f8
ENDCHAR
STARTCHAR ecircumflex
ENCODING 234
SWIDTH 0 0
DWIDTH 0 0
BBX 9 4 -9 20
BITMAP
7d80
c500
e700
ee00
ENDCHAR
STARTCHAR ediaeresis
ENCODING 235
SWIDTH 0 0
DWIDTH 0 0
BBX 5 4 -5 20
BITMAP
30
f8
f8
60
ENDCHAR
STARTCHAR igrave
ENCODING 236
SWIDTH 0 0
DWIDTH 0 0
BBX 8 6 -8 19
BITMAP
01
0e
7c
f0
d0
f0
ENDCHAR
STARTCHAR iacute
ENCODING 237
SWIDTH 0 0
DWIDTH 0 0
BBX 5 5 -6 13
BITMAP
30
78
d8
f0
60
ENDCHAR
STARTCHAR icircumflex
ENCODING 238
SWIDTH 0 0
DWIDTH 0 0
BBX 5 4 -6 17
BITMAP
78
d8
d8
f0
ENDCHAR
STARTCHAR idiaeresis
ENCODING 239
SWIDTH 330 0
DWIDTH 11 0
BBX 12 12 0 0
BITMAP
03c0
0fe0
1870
3330
6f90
5f90
dfb0
9fa0
9f60
c4c0
7f80
3e00
ENDCHAR
STARTCHAR eth
ENCODING 240
SWIDTH 360 0
DWIDTH 12 0
BBX 10 8 1 0
BITMAP
0f80
3fc0
60c0
c0c0
c1c0
c180
ff00
7c00
ENDCHAR
STARTCHAR ntilde
ENCODING 241
SWIDTH 360 0
DWIDTH 12 0
BBX 10 10 1 -1
BITMAP
0f80
1fc0
31c0
6cc0
dec0
f6c0
fd80
f980
3700
0600
ENDCHAR
STARTCHAR ograve
ENCODING 242
SWIDTH 420 0
DWIDTH 14 0
BBX 13 12 0 0
BITMAP
1800
3800
3800
3000
37f8
7cd8
7f38
7b30
fe30
dc70
ffe0
7fc0
ENDCHAR
STARTCHAR oacute
ENCODING 243
SWIDTH 420 0
DWIDTH 14 0
BBX 12 9 1 0
BITMAP
1ee0
3ff0
33b0
6330
6230
fe20
de60
fc40
e440
ENDCHAR
STARTCHAR ocircumflex
ENCODING 244
SWIDTH 420 0
DWIDTH 14 0
BBX 16 13 0 0
BITMAP
0003
0003
0006
000c
021c
1ff8
3840
6700
cd00
cf00
ef00
ffe0
3c40
ENDCHAR
STARTCHAR otilde
ENCODING 245
SWIDTH 420 0
DWIDTH 14 0
BBX 16 13 0 0
BITMAP
0003
0003
03c6
02cc
06dc
0ff8
3ff0
6700
cd00
cf00
ef00
ffe0
3c40
ENDCHAR
STARTCHAR odiaeresis
ENCODING 246
SWIDTH 300 0
DWIDTH 10 0
BBX 9 13 0 0
BITMAP
1000
3000
3000
3000
3f00
3f80
2180
0180
7180
f900
d700
fe00
7800
ENDCHAR
STARTCHAR division
ENCODING 247
SWIDTH 420 0
DWIDTH 14 0
BBX 16 13 0 0
BITMAP
0001
0003
0006
0006
000c
1dec
3fec
6678
e078
f8d0
f8f0
d9e0
f300
ENDCHAR
STARTCHAR oslash
ENCODING 248
SWIDTH 420 0
DWIDTH 14 0
BBX 14 12 1 0
BITMAP
0004
000c
0008
0018
1ff0
3fe0
60c0
c1e0
9960
fdc0
eec0
6780
ENDCHAR
STARTCHAR ugrave
ENCODING 249
SWIDTH 360 0
DWIDTH 12 0
BBX 14 12 0 0
BITMAP
000c
000c
001c
0018
1ff8
3ff0
7380
e180
ffc0
f7c0
fdc0
7880
ENDCHAR
STARTCHAR uacute
ENCODING 250
SWIDTH 990 0
DWIDTH 33 0
BBX 34 2 0 4
BITMAP
ffffc00000
00003fffc0
ENDCHAR
STARTCHAR ucircumflex
ENCODING 251
SWIDTH 510 0
DWIDTH 17 0
BBX 17 2 0 4
BITMAP
ff8000
007f80
ENDCHAR
STARTCHAR udiaeresis
ENCODING 252
SWIDTH 0 0
DWIDTH 0 0
BBX 5 7 -6 -13
BITMAP
10
78
d8
f8
70
30
30
ENDCHAR
STARTCHAR yacute
ENCODING 253
SWIDTH 0 0
DWIDTH 0 0
BBX 8 8 -9 -14
BITMAP
30
7b
9a
f6
76
34
3c
10
ENDCHAR
STARTCHAR thorn
ENCODING 254
SWIDTH 420 0
DWIDTH 14 0
BBX 14 13 0 0
BITMAP
01f0
07f8
1808
23c4
2664
44c4
8704
8d08
8988
8c90
c020
4c40
3f80
ENDCHAR
STARTCHAR ydiaeresis
ENCODING 255
SWIDTH 0 0
DWIDTH 0 0
BBX 1 1 0 0
BITMAP
00
ENDCHAR
ENDFONT
